<svg xmlns="http://www.w3.org/2000/svg" viewBox="0 0 24 24"><defs><style>.cls-1{fill:none;opacity:0;}.cls-2{fill:#fff;}.cls-3,.cls-4{fill:#d1d1d3;}.cls-3{opacity:0.55;}.cls-5{fill:#d92128;}</style></defs><title>24x24_baseball_color</title><g id="Layer_8" data-name="Layer 8"><rect class="cls-1" width="24" height="24"/><path class="cls-2" d="M11.99109,2.63214h0a9.36671,9.36671,0,0,1,1.601,18.593,9.49532,9.49532,0,0,1-1.627.142,9.3666,9.3666,0,0,1-1.602-18.593,9.48274,9.48274,0,0,1,1.628-.142"/><path class="cls-3" d="M22.74791,10.11427a10.9343,10.9343,0,1,0-8.886,12.656A10.93461,10.93461,0,0,0,22.74791,10.11427Zm-8.56335,8.59906A9.0097,9.0097,0,0,1,7.13677,2.69673a10.47387,10.47387,0,0,1,14.016,4.23676,8.95257,8.95257,0,0,1-6.9682,11.77984Z"/><path class="cls-4" d="M11.99109,2.63214h0a9.36671,9.36671,0,0,1,1.601,18.593,9.49532,9.49532,0,0,1-1.627.142,9.3666,9.3666,0,0,1-1.602-18.593,9.48274,9.48274,0,0,1,1.628-.142m-.001-1.569a10.93587,10.93587,0,1,0,10.759,9.051,10.939,10.939,0,0,0-10.759-9.051"/><path class="cls-5" d="M21.76506,9.46974a4.45359,4.45359,0,0,1,.88807.212c.03131.14447.07019.28552.09594.43243.05652.323.09168.64459.11908.96527a2.909,2.909,0,0,0-1.24859-.43573l-.07209.58136a3.29832,3.29832,0,0,0-.43194-.02594,4.35275,4.35275,0,0,0-.474.02594l-.06305-.58124a6.22684,6.22684,0,0,0-.87341.155c-.178.04547-.35712.10144-.53644.1615l.18774.55731a8.35636,8.35636,0,0,0-.95794.39295l-.25452-.52844a10.64949,10.64949,0,0,0-1.29547.74182l.326.489c-.29.193-.579.406-.86395.636l-.36988-.45685a13.182,13.182,0,0,0-1.0188.91394c-.0332.0332-.06292.068-.09564.10144l.42011.41144c-.257.262-.498.531-.722.803l-.45141-.37153a12.06816,12.06816,0,0,0-.87861,1.217l.49158.3111a9.67044,9.67044,0,0,0-.519.922l-.518-.25592a8.90411,8.90411,0,0,0-.54528,1.368l.55444.16559a5.98594,5.98594,0,0,0-.208.964l-.5744-.072a4.3548,4.3548,0,0,0,.027,1.379l.56946-.11139a2.20235,2.20235,0,0,0,.267.719L12.24,21.5569a2.31234,2.31234,0,0,0,.343.45477,2.3731,2.3731,0,0,0,.5578.39307l.2724-.50665a2.31551,2.31551,0,0,0,.744.241l-.09308.58588.00091.00006c-.0686.01337-.13385.03406-.20294.04614a11.0417,11.0417,0,0,1-1.897.165c-.03968,0-.07856-.00482-.11817-.00525-.03222-.02923-.06891-.05236-.09985-.08331a3.53884,3.53884,0,0,1-.5202-.68134l-.51465.30951a4.55417,4.55417,0,0,1-.561-1.484l.5791-.11329a5.54245,5.54245,0,0,1-.03338-1.756l-.59381-.07434a8.46729,8.46729,0,0,1,.288-1.347l.57428.1715a9.9046,9.9046,0,0,1,.61493-1.55615l-.53442-.264a12.61789,12.61789,0,0,1,.641-1.139l.50415.319a13.27136,13.27136,0,0,1,.96832-1.33417l-.46106-.37946q.40055-.48742.858-.955l.42542.41656c.03558-.03631.06811-.07434.10419-.11041a14.2315,14.2315,0,0,1,1.1112-.9964L14.8225,11.411q.5115-.414,1.04-.766l.33044.49561a11.87853,11.87853,0,0,1,1.43817-.823l-.25866-.537a10.53428,10.53428,0,0,1,1.22894-.504l.18945.56237c.20752-.0697.41492-.13385.62128-.18664A7.36135,7.36135,0,0,1,20.451,9.46858l-.06446-.59448a6.87969,6.87969,0,0,1,.729-.041,5.98585,5.98585,0,0,1,.723.044ZM1.79332,14.08546q.492-.345.991-.721l-.3587-.4795q.63062-.47625,1.25616-.9917l.38086.46131c.308-.254.618-.518.928-.789L4.59618,11.116q.60013-.525,1.18408-1.07391l.40784.43091q.438-.414.871-.848l.067-.066-.42023-.41846q.56973-.572,1.10584-1.15418L8.24822,8.39c.278-.301.55-.603.813-.904l-.4455-.38922c.3573-.40894.69715-.81885,1.0268-1.22876l.46331.37231q.38847-.4845.75-.965L10.382,4.91975c.33014-.43982.63684-.87634.92962-1.31036l.49433.3335c.235-.349.459-.695.668-1.038l-.50818-.31158c.3103-.50678.59326-1.0058.84369-1.49359-.27155-.02057-.544-.03656-.81934-.03656-.1701,0-.34222.01422-.51349.02227-.16351.29352-.33557.58991-.519.88977l-.49963-.30633q-.28656.46654-.613.951l.48663.32831c-.28149.41754-.57709.83776-.89532,1.26171L8.9638,3.85536c-.225.299-.458.6-.702.903l.45917.369c-.3194.39709-.64893.79455-.99573,1.1914L7.2802,5.93q-.37353.42609-.769.854l.43237.39978c-.34863.37659-.70569.75141-1.07538,1.12262L5.45012,7.89l-.062.063c-.275.274-.549.541-.826.802l.4043.42719c-.38434.36419-.767.71521-1.14667,1.04882l-.38916-.44354q-.438.38406-.874.743l.37536.45465c-.40789.3371-.812.66016-1.2091.96021l-.632-.84485a10.91824,10.91824,0,0,0,.10174,2.66693c.08606-.059.17133-.11285.25751-.17328Z"/></g></svg>